<svg width="302" height="145" viewBox="0 0 302 145" fill="none" xmlns="http://www.w3.org/2000/svg">
<g filter="url(#filter0_d_3029_6249)">
<path d="M44.74 87.5C44.74 90.38 43.9133 92.94 42.26 95.18C40.66 97.42 38.3133 99.18 35.22 100.46C32.18 101.74 28.42 102.38 23.94 102.38C20.26 102.38 16.6333 101.927 13.06 101.02C9.54 100.113 6.68667 98.9133 4.5 97.42L8.9 88.06C10.98 89.4467 13.4067 90.54 16.18 91.34C18.9533 92.14 21.78 92.54 24.66 92.54C27.4867 92.54 29.46 92.14 30.58 91.34C31.7 90.54 32.26 89.6067 32.26 88.54C32.26 87.4733 31.7533 86.62 30.74 85.98C29.78 85.34 28.5 84.8333 26.9 84.46C25.3533 84.0333 23.62 83.6333 21.7 83.26C19.8333 82.8867 17.94 82.4067 16.02 81.82C14.1533 81.2333 12.42 80.46 10.82 79.5C9.27333 78.4867 7.99333 77.18 6.98 75.58C6.02 73.9267 5.54 71.8733 5.54 69.42C5.54 66.54 6.36667 64.0067 8.02 61.82C9.72667 59.58 12.1267 57.82 15.22 56.54C18.3133 55.26 21.9933 54.62 26.26 54.62C29.14 54.62 32.0733 54.94 35.06 55.58C38.0467 56.22 40.66 57.2333 42.9 58.62L38.82 67.98C36.74 66.7 34.58 65.7933 32.34 65.26C30.1533 64.7267 27.9667 64.46 25.78 64.46C23.1133 64.46 21.1667 64.86 19.94 65.66C18.7133 66.46 18.1 67.4733 18.1 68.7C18.1 69.7667 18.58 70.62 19.54 71.26C20.5 71.9 21.7533 72.4333 23.3 72.86C24.9 73.2333 26.66 73.6067 28.58 73.98C30.5 74.3533 32.3933 74.8333 34.26 75.42C36.1267 75.9533 37.86 76.7 39.46 77.66C41.06 78.62 42.34 79.9 43.3 81.5C44.26 83.0467 44.74 85.0467 44.74 87.5ZM66.5813 101.5V65.34H52.1013V55.5H93.7013V65.34H79.2213V101.5H66.5813ZM127.906 102.38C122.946 102.38 118.519 101.367 114.626 99.34C110.732 97.26 107.666 94.4067 105.426 90.78C103.186 87.1533 102.066 83.0467 102.066 78.46C102.066 73.8733 103.186 69.7933 105.426 66.22C107.666 62.6467 110.732 59.82 114.626 57.74C118.519 55.66 122.946 54.62 127.906 54.62C132.866 54.62 137.292 55.66 141.186 57.74C145.079 59.82 148.146 62.6467 150.386 66.22C152.626 69.7933 153.746 73.8733 153.746 78.46C153.746 83.0467 152.626 87.1533 150.386 90.78C148.146 94.4067 145.079 97.26 141.186 99.34C137.292 101.367 132.866 102.38 127.906 102.38ZM127.906 92.06C130.466 92.06 132.706 91.5 134.626 90.38C136.599 89.2067 138.146 87.58 139.266 85.5C140.386 83.42 140.946 81.1 140.946 78.54C140.946 75.8733 140.386 73.5267 139.266 71.5C138.146 69.4733 136.599 67.8733 134.626 66.7C132.706 65.5267 130.466 64.94 127.906 64.94C125.399 64.94 123.159 65.5267 121.186 66.7C119.212 67.8733 117.639 69.4733 116.466 71.5C115.346 73.5267 114.786 75.8467 114.786 78.46C114.786 81.0733 115.346 83.42 116.466 85.5C117.639 87.58 119.212 89.2067 121.186 90.38C123.159 91.5 125.399 92.06 127.906 92.06ZM168.691 101.5V55.5H189.651C193.918 55.5 197.571 56.1933 200.611 57.58C203.705 58.9133 206.105 60.8333 207.811 63.34C209.518 65.8467 210.371 68.8867 210.371 72.46C210.371 75.9267 209.518 78.9133 207.811 81.42C206.105 83.9267 203.705 85.8467 200.611 87.18C197.571 88.5133 193.918 89.18 189.651 89.18H175.651L181.331 83.82V101.5H168.691ZM197.651 101.5L186.051 84.78H199.491L211.251 101.5H197.651ZM181.331 85.26L176.691 79.58H188.771C191.705 79.58 193.918 78.9667 195.411 77.74C196.905 76.46 197.651 74.7 197.651 72.46C197.651 70.1667 196.905 68.4067 195.411 67.18C193.918 65.9533 191.705 65.34 188.771 65.34H176.691L181.331 59.66V85.26Z" fill="white"/>
<path d="M226.176 101.5V55.5H249.696C255.776 55.5 260.309 56.62 263.296 58.86C266.336 61.1 267.856 64.0067 267.856 67.58C267.856 71.1 266.576 73.9533 264.016 76.14C261.509 78.3267 257.989 79.42 253.456 79.42L254.736 76.38C259.482 76.38 263.242 77.4733 266.016 79.66C268.789 81.7933 270.176 84.86 270.176 88.86C270.176 92.8067 268.549 95.9 265.296 98.14C262.042 100.38 257.269 101.5 250.976 101.5H226.176ZM238.656 92.62H250.096C252.496 92.62 254.309 92.1933 255.536 91.34C256.816 90.4867 257.456 89.2333 257.456 87.58C257.456 85.8733 256.816 84.62 255.536 83.82C254.309 82.9667 252.496 82.54 250.096 82.54H237.376V74.06H248.096C250.442 74.06 252.202 73.66 253.376 72.86C254.602 72.06 255.216 70.86 255.216 69.26C255.216 67.66 254.602 66.46 253.376 65.66C252.202 64.8067 250.442 64.38 248.096 64.38H238.656V92.62ZM284.832 101.5V55.5H297.472V101.5H284.832Z" fill="#FFF501"/>
</g>
<defs>
<filter id="filter0_d_3029_6249" x="0.5" y="0.5" width="300.972" height="152" filterUnits="userSpaceOnUse" color-interpolation-filters="sRGB">
<feFlood flood-opacity="0" result="BackgroundImageFix"/>
<feColorMatrix in="SourceAlpha" type="matrix" values="0 0 0 0 0 0 0 0 0 0 0 0 0 0 0 0 0 0 127 0" result="hardAlpha"/>
<feOffset dy="4"/>
<feGaussianBlur stdDeviation="2"/>
<feComposite in2="hardAlpha" operator="out"/>
<feColorMatrix type="matrix" values="0 0 0 0 0 0 0 0 0 0 0 0 0 0 0 0 0 0 0.25 0"/>
<feBlend mode="normal" in2="BackgroundImageFix" result="effect1_dropShadow_3029_6249"/>
<feBlend mode="normal" in="SourceGraphic" in2="effect1_dropShadow_3029_6249" result="shape"/>
</filter>
</defs>
</svg>
